<!-- Ícone: monitor + janela + celular conectados (cor #7b2cbf) -->
<svg xmlns="http://www.w3.org/2000/svg" viewBox="0 0 256 256"
     width="128" height="128" fill="none"
     stroke="#7b2cbf" stroke-width="10" stroke-linecap="round" stroke-linejoin="round"
     aria-labelledby="icoUiMulti" role="img">
  <title id="icoUiMulti">Interface em múltiplos dispositivos</title>

  <!-- Monitor -->
  <rect x="24" y="92" width="152" height="92" rx="12" ry="12"/>
  <line x1="100" y1="184" x2="100" y2="206"/>
  <rect x="64" y="206" width="72" height="16" rx="6" ry="6"/>

  <!-- Janela (UI) sobre a tela -->
  <rect x="40" y="108" width="120" height="60" rx="8" ry="8"/>
  <line x1="40" y1="126" x2="160" y2="126"/>
  <rect x="50" y="114" width="8" height="8" rx="2"/>
  <rect x="64" y="114" width="8" height="8" rx="2"/>
  <rect x="78" y="114" width="8" height="8" rx="2"/>
  <!-- blocos de conteúdo -->
  <rect x="52" y="136" width="44" height="16" rx="4"/>
  <rect x="52" y="156" width="24" height="8"  rx="4"/>
  <rect x="82" y="156" width="24" height="8"  rx="4"/>
  <rect x="112" y="136" width="20" height="28" rx="4"/>

  <!-- Cabo de ligação até o celular -->
  <path d="M176 132c16 0 24 8 24 24v30"/>

  <!-- Celular -->
  <rect x="184" y="186" width="48" height="70" rx="10"/>
  <rect x="196" y="198" width="24" height="40" rx="4"/>
  <circle cx="208" cy="244" r="4"/>
</svg>